<mxfile host="Electron" agent="Mozilla/5.0 (Windows NT 10.0; Win64; x64) AppleWebKit/537.36 (KHTML, like Gecko) draw.io/24.7.17 Chrome/128.0.6613.36 Electron/32.0.1 Safari/537.36" version="24.7.17">
  <diagram name="Page-1" id="VGRUhm0RSFTITCIQIQwt">
    <mxGraphModel dx="1235" dy="740" grid="1" gridSize="10" guides="1" tooltips="1" connect="1" arrows="1" fold="1" page="1" pageScale="1" pageWidth="827" pageHeight="1169" math="0" shadow="0">
      <root>
        <mxCell id="0" />
        <mxCell id="1" parent="0" />
        <mxCell id="PRZvkhkHTBRHNg9CXJdy-9" value="&lt;font style=&quot;font-size: 17px;&quot;&gt;Automate à états de MasterOpl&lt;/font&gt;" style="swimlane;whiteSpace=wrap;html=1;startSize=60;" vertex="1" parent="1">
          <mxGeometry x="10" y="15" width="800" height="1140" as="geometry" />
        </mxCell>
        <mxCell id="PRZvkhkHTBRHNg9CXJdy-12" value="&lt;div style=&quot;font-size: 14px;&quot;&gt;&lt;div&gt;&lt;b&gt;&lt;font color=&quot;#ff0000&quot;&gt;en = &#39;1&#39;&lt;/font&gt;&lt;/b&gt;&lt;/div&gt;&lt;div&gt;&lt;span style=&quot;background-color: initial;&quot;&gt;&lt;b&gt;&lt;span style=&quot;white-space: pre;&quot;&gt;&#x9;&lt;/span&gt;rg_v1 &amp;lt;= v1&lt;/b&gt;&lt;/span&gt;&lt;/div&gt;&lt;div&gt;&lt;b&gt;&lt;span style=&quot;white-space: pre;&quot;&gt;&#x9;&lt;/span&gt;rg_v2 &amp;lt;= v2&lt;/b&gt;&lt;/div&gt;&lt;div&gt;&lt;b&gt;&lt;span style=&quot;white-space: pre;&quot;&gt;&#x9;&lt;/span&gt;ss &amp;lt;= &#39;0&#39;&lt;/b&gt;&lt;/div&gt;&lt;div&gt;&lt;b&gt;&lt;span style=&quot;white-space: pre;&quot;&gt;&#x9;&lt;/span&gt;busy &amp;lt;= &#39;1&#39;&lt;span style=&quot;background-color: initial;&quot;&gt;&amp;nbsp;&lt;/span&gt;&lt;/b&gt;&lt;/div&gt;&lt;div&gt;&lt;span style=&quot;background-color: initial;&quot;&gt;&lt;b&gt;&lt;span style=&quot;white-space: pre;&quot;&gt;&#x9;&lt;/span&gt;cpt := 10&lt;/b&gt;&lt;/span&gt;&lt;/div&gt;&lt;div&gt;&lt;b&gt;&lt;span style=&quot;white-space: pre;&quot;&gt;&#x9;&lt;/span&gt;noOctet := 1&lt;/b&gt;&lt;/div&gt;&lt;div&gt;&lt;b&gt;&lt;span style=&quot;white-space: pre;&quot;&gt;&#x9;&lt;/span&gt;etat &amp;lt;= attente&lt;/b&gt;&lt;/div&gt;&lt;/div&gt;" style="text;html=1;align=left;verticalAlign=middle;whiteSpace=wrap;rounded=0;" vertex="1" parent="PRZvkhkHTBRHNg9CXJdy-9">
          <mxGeometry x="520" y="380" width="238" height="30" as="geometry" />
        </mxCell>
        <mxCell id="PRZvkhkHTBRHNg9CXJdy-1" value="&lt;b&gt;&lt;font color=&quot;#006600&quot; style=&quot;font-size: 16px;&quot;&gt;repos&lt;/font&gt;&lt;/b&gt;" style="ellipse;whiteSpace=wrap;html=1;" vertex="1" parent="PRZvkhkHTBRHNg9CXJdy-9">
          <mxGeometry x="350" y="230" width="120" height="130" as="geometry" />
        </mxCell>
        <mxCell id="PRZvkhkHTBRHNg9CXJdy-2" value="&lt;font size=&quot;1&quot; color=&quot;#006600&quot;&gt;&lt;b style=&quot;font-size: 16px;&quot;&gt;attente&lt;/b&gt;&lt;/font&gt;" style="ellipse;whiteSpace=wrap;html=1;" vertex="1" parent="PRZvkhkHTBRHNg9CXJdy-9">
          <mxGeometry x="350" y="510" width="120" height="120" as="geometry" />
        </mxCell>
        <mxCell id="PRZvkhkHTBRHNg9CXJdy-3" value="&lt;font style=&quot;font-size: 16px;&quot; color=&quot;#006600&quot;&gt;&lt;b&gt;echange&lt;/b&gt;&lt;/font&gt;" style="ellipse;whiteSpace=wrap;html=1;" vertex="1" parent="PRZvkhkHTBRHNg9CXJdy-9">
          <mxGeometry x="360" y="830" width="120" height="120" as="geometry" />
        </mxCell>
        <mxCell id="PRZvkhkHTBRHNg9CXJdy-5" value="" style="endArrow=classic;html=1;rounded=0;exitX=1;exitY=0.5;exitDx=0;exitDy=0;" edge="1" parent="PRZvkhkHTBRHNg9CXJdy-9" source="PRZvkhkHTBRHNg9CXJdy-1" target="PRZvkhkHTBRHNg9CXJdy-2">
          <mxGeometry width="50" height="50" relative="1" as="geometry">
            <mxPoint x="350" y="510" as="sourcePoint" />
            <mxPoint x="400" y="460" as="targetPoint" />
            <Array as="points">
              <mxPoint x="510" y="320" />
              <mxPoint x="510" y="480" />
            </Array>
          </mxGeometry>
        </mxCell>
        <mxCell id="PRZvkhkHTBRHNg9CXJdy-6" value="" style="endArrow=classic;html=1;rounded=0;exitX=1;exitY=1;exitDx=0;exitDy=0;entryX=1;entryY=0;entryDx=0;entryDy=0;" edge="1" parent="PRZvkhkHTBRHNg9CXJdy-9" source="PRZvkhkHTBRHNg9CXJdy-2" target="PRZvkhkHTBRHNg9CXJdy-3">
          <mxGeometry width="50" height="50" relative="1" as="geometry">
            <mxPoint x="412" y="550" as="sourcePoint" />
            <mxPoint x="410" y="736" as="targetPoint" />
            <Array as="points">
              <mxPoint x="510" y="640" />
              <mxPoint x="510" y="800" />
            </Array>
          </mxGeometry>
        </mxCell>
        <mxCell id="PRZvkhkHTBRHNg9CXJdy-7" value="" style="shape=flexArrow;endArrow=classic;html=1;rounded=0;entryX=0;entryY=0.375;entryDx=0;entryDy=0;entryPerimeter=0;" edge="1" parent="PRZvkhkHTBRHNg9CXJdy-9" target="PRZvkhkHTBRHNg9CXJdy-1">
          <mxGeometry width="50" height="50" relative="1" as="geometry">
            <mxPoint x="110" y="240" as="sourcePoint" />
            <mxPoint x="230" y="255" as="targetPoint" />
          </mxGeometry>
        </mxCell>
        <mxCell id="PRZvkhkHTBRHNg9CXJdy-11" value="" style="endArrow=classic;html=1;rounded=0;entryX=0;entryY=1;entryDx=0;entryDy=0;exitX=0;exitY=0;exitDx=0;exitDy=0;" edge="1" parent="PRZvkhkHTBRHNg9CXJdy-9" source="PRZvkhkHTBRHNg9CXJdy-3" target="PRZvkhkHTBRHNg9CXJdy-2">
          <mxGeometry width="50" height="50" relative="1" as="geometry">
            <mxPoint x="330" y="740" as="sourcePoint" />
            <mxPoint x="310" y="550" as="targetPoint" />
            <Array as="points">
              <mxPoint x="320" y="800" />
              <mxPoint x="320" y="640" />
            </Array>
          </mxGeometry>
        </mxCell>
        <mxCell id="PRZvkhkHTBRHNg9CXJdy-8" value="&lt;b&gt;&lt;font style=&quot;font-size: 15px;&quot;&gt;Arrivé d&#39;un&amp;nbsp;&lt;/font&gt;&lt;/b&gt;&lt;div&gt;&lt;b&gt;&lt;font style=&quot;font-size: 15px;&quot;&gt;signal reset&lt;/font&gt;&lt;/b&gt;&lt;/div&gt;" style="text;html=1;align=center;verticalAlign=middle;resizable=0;points=[];autosize=1;strokeColor=none;fillColor=none;" vertex="1" parent="PRZvkhkHTBRHNg9CXJdy-9">
          <mxGeometry x="30" y="180" width="110" height="50" as="geometry" />
        </mxCell>
        <mxCell id="PRZvkhkHTBRHNg9CXJdy-13" value="&lt;div style=&quot;font-size: 14px;&quot;&gt;&lt;b style=&quot;&quot;&gt;&lt;font color=&quot;#ff0000&quot; style=&quot;font-size: 14px;&quot;&gt;rst = &#39;0&#39;&lt;/font&gt;&lt;/b&gt;&lt;/div&gt;&lt;div style=&quot;font-size: 14px;&quot;&gt;&lt;b&gt;&lt;font style=&quot;font-size: 14px;&quot;&gt;&lt;span style=&quot;white-space: pre;&quot;&gt;&#x9;&lt;/span&gt;ss &amp;lt;= &#39;1&#39;&lt;/font&gt;&lt;/b&gt;&lt;/div&gt;&lt;div style=&quot;font-size: 14px;&quot;&gt;&lt;b&gt;&lt;font style=&quot;font-size: 14px;&quot;&gt;&lt;span style=&quot;white-space: pre;&quot;&gt;&#x9;&lt;/span&gt;busy &amp;lt;= &#39;0&#39;&lt;/font&gt;&lt;/b&gt;&lt;/div&gt;&lt;div style=&quot;font-size: 14px;&quot;&gt;&lt;b&gt;&lt;font style=&quot;font-size: 14px;&quot;&gt;&lt;span style=&quot;white-space: pre;&quot;&gt;&#x9;&lt;/span&gt;val_xor &amp;lt;= (others =&amp;gt; &#39;U&#39;)&amp;nbsp;&lt;/font&gt;&lt;/b&gt;&lt;/div&gt;&lt;div style=&quot;font-size: 14px;&quot;&gt;&lt;b&gt;&lt;font style=&quot;font-size: 14px;&quot;&gt;&lt;span style=&quot;white-space: pre;&quot;&gt;&#x9;&lt;/span&gt;val_and &amp;lt;= (others =&amp;gt; &#39;U&#39;)&lt;/font&gt;&lt;/b&gt;&lt;/div&gt;&lt;div style=&quot;font-size: 14px;&quot;&gt;&lt;b&gt;&lt;font style=&quot;font-size: 14px;&quot;&gt;&amp;nbsp;&lt;span style=&quot;white-space: pre;&quot;&gt;&#x9;&lt;/span&gt;val_or &amp;lt;= (others =&amp;gt; &#39;U&#39;)&lt;/font&gt;&lt;/b&gt;&lt;/div&gt;&lt;div style=&quot;font-size: 14px;&quot;&gt;&lt;b&gt;&lt;font style=&quot;font-size: 14px;&quot;&gt;&lt;span style=&quot;white-space: pre;&quot;&gt;&#x9;&lt;/span&gt;en_er &amp;lt;= &#39;0&#39;&lt;/font&gt;&lt;/b&gt;&lt;/div&gt;&lt;div style=&quot;font-size: 14px;&quot;&gt;&lt;b&gt;&lt;font style=&quot;font-size: 14px;&quot;&gt;&lt;span style=&quot;white-space: pre;&quot;&gt;&#x9;&lt;/span&gt;cpt := 0&lt;/font&gt;&lt;/b&gt;&lt;/div&gt;&lt;div style=&quot;font-size: 14px;&quot;&gt;&lt;b&gt;&lt;font style=&quot;font-size: 14px;&quot;&gt;&lt;span style=&quot;white-space: pre;&quot;&gt;&#x9;&lt;/span&gt;etat &amp;lt;= repos&lt;/font&gt;&lt;/b&gt;&lt;/div&gt;" style="text;html=1;align=left;verticalAlign=middle;resizable=0;points=[];autosize=1;strokeColor=none;fillColor=none;" vertex="1" parent="PRZvkhkHTBRHNg9CXJdy-9">
          <mxGeometry x="150" y="70" width="220" height="160" as="geometry" />
        </mxCell>
        <mxCell id="PRZvkhkHTBRHNg9CXJdy-14" value="&lt;div style=&quot;font-size: 14px;&quot;&gt;&lt;br&gt;&lt;/div&gt;&lt;div style=&quot;font-size: 14px;&quot;&gt;&lt;b style=&quot;background-color: initial;&quot;&gt;cpt := cpt - 1&lt;/b&gt;&lt;br&gt;&lt;/div&gt;&lt;div style=&quot;font-size: 14px;&quot;&gt;&lt;b style=&quot;&quot;&gt;&lt;font style=&quot;font-size: 14px;&quot;&gt;&amp;nbsp;&amp;nbsp;&lt;/font&gt;&lt;/b&gt;&lt;/div&gt;" style="text;html=1;align=left;verticalAlign=middle;resizable=0;points=[];autosize=1;strokeColor=none;fillColor=none;" vertex="1" parent="PRZvkhkHTBRHNg9CXJdy-9">
          <mxGeometry x="520" y="530" width="110" height="60" as="geometry" />
        </mxCell>
        <mxCell id="PRZvkhkHTBRHNg9CXJdy-16" value="&lt;div style=&quot;text-wrap: nowrap; font-size: 14px;&quot;&gt;&lt;b&gt;&lt;font color=&quot;#ff0000&quot;&gt;cpt = 0&lt;/font&gt;&lt;/b&gt;&lt;/div&gt;&lt;div style=&quot;text-wrap: nowrap; font-size: 14px;&quot;&gt;&lt;b style=&quot;background-color: initial;&quot;&gt;&lt;span style=&quot;white-space-collapse: preserve;&quot;&gt;&#x9;&lt;/span&gt;&lt;font color=&quot;#0000cc&quot;&gt;noOctet = 1&lt;/font&gt; =&amp;gt;&amp;nbsp;&lt;/b&gt;&lt;b style=&quot;background-color: initial;&quot;&gt;din_er &amp;lt;= rg_v1&lt;/b&gt;&lt;/div&gt;&lt;div style=&quot;text-wrap: nowrap; font-size: 14px;&quot;&gt;&lt;span style=&quot;white-space-collapse: preserve;&quot;&gt;&#x9;&lt;/span&gt;&lt;b style=&quot;background-color: initial;&quot;&gt;&lt;font color=&quot;#0000cc&quot;&gt;noOctet = 2 &lt;/font&gt;=&amp;gt;&amp;nbsp;&lt;/b&gt;&lt;b style=&quot;background-color: initial;&quot;&gt;din_er &amp;lt;= rg_v2&lt;/b&gt;&lt;br&gt;&lt;/div&gt;&lt;div style=&quot;text-wrap: nowrap; font-size: 14px;&quot;&gt;&lt;b style=&quot;background-color: initial;&quot;&gt;&lt;span style=&quot;white-space-collapse: preserve;&quot;&gt;&#x9;&lt;/span&gt;&lt;/b&gt;&lt;b style=&quot;background-color: initial;&quot;&gt;&lt;font color=&quot;#0000cc&quot;&gt;noOctet = others&lt;/font&gt; =&amp;gt; null&lt;/b&gt;&lt;/div&gt;&lt;div style=&quot;text-wrap: nowrap; font-size: 14px;&quot;&gt;&lt;b&gt;&lt;span style=&quot;white-space-collapse: preserve;&quot;&gt;&#x9;&lt;/span&gt;en_er &amp;lt;= &#39;1&#39;&lt;/b&gt;&lt;/div&gt;&lt;div style=&quot;text-wrap: nowrap; font-size: 14px;&quot;&gt;&lt;b&gt;&lt;span style=&quot;white-space-collapse: preserve;&quot;&gt;&#x9;&lt;/span&gt;etat &amp;lt;= echange&lt;/b&gt;&lt;/div&gt;" style="text;whiteSpace=wrap;html=1;" vertex="1" parent="PRZvkhkHTBRHNg9CXJdy-9">
          <mxGeometry x="520" y="660" width="251" height="120" as="geometry" />
        </mxCell>
        <mxCell id="PRZvkhkHTBRHNg9CXJdy-17" value="" style="endArrow=classic;html=1;rounded=0;exitX=0;exitY=0.5;exitDx=0;exitDy=0;entryX=0;entryY=0.5;entryDx=0;entryDy=0;" edge="1" parent="PRZvkhkHTBRHNg9CXJdy-9" source="PRZvkhkHTBRHNg9CXJdy-3" target="PRZvkhkHTBRHNg9CXJdy-1">
          <mxGeometry width="50" height="50" relative="1" as="geometry">
            <mxPoint x="306" y="843" as="sourcePoint" />
            <mxPoint x="302" y="640" as="targetPoint" />
            <Array as="points">
              <mxPoint x="70" y="830" />
              <mxPoint x="70" y="340" />
            </Array>
          </mxGeometry>
        </mxCell>
        <mxCell id="PRZvkhkHTBRHNg9CXJdy-18" value="&lt;div&gt;&lt;b style=&quot;font-size: 14px;&quot;&gt;&lt;font color=&quot;#ff0000&quot;&gt;busy_er = &#39;0&#39; &amp;amp; en_er = &#39;0&#39;&lt;/font&gt;&lt;/b&gt;&lt;font color=&quot;#ff0000&quot; style=&quot;font-size: 14px;&quot;&gt;&lt;b&gt;&lt;br&gt;&lt;/b&gt;&lt;/font&gt;&lt;/div&gt;&lt;font style=&quot;font-size: 14px;&quot;&gt;&lt;b style=&quot;&quot;&gt;&lt;span style=&quot;color: rgb(255, 0, 0); white-space: pre;&quot;&gt;&#x9;&lt;/span&gt;&lt;font color=&quot;#0000cc&quot;&gt;nbOctet := 3&lt;/font&gt;&lt;/b&gt;&lt;/font&gt;&lt;div style=&quot;font-size: 14px;&quot;&gt;&lt;div style=&quot;&quot;&gt;&lt;font style=&quot;font-size: 14px;&quot;&gt;&lt;b&gt;&lt;span style=&quot;white-space: pre;&quot;&gt;&#x9;&lt;span style=&quot;white-space: pre;&quot;&gt;&#x9;&lt;/span&gt;&lt;/span&gt;val_or &amp;lt;= dout_er&lt;/b&gt;&lt;/font&gt;&lt;/div&gt;&lt;div style=&quot;&quot;&gt;&lt;span style=&quot;white-space-collapse: collapse;&quot;&gt;&lt;font style=&quot;font-size: 14px;&quot;&gt;&lt;b&gt;&lt;span style=&quot;white-space: pre;&quot;&gt;&#x9;&lt;span style=&quot;white-space: pre;&quot;&gt;&#x9;&lt;/span&gt;&lt;/span&gt;ss &amp;lt;= &#39;1&#39;&lt;/b&gt;&lt;/font&gt;&lt;/span&gt;&lt;/div&gt;&lt;div style=&quot;&quot;&gt;&lt;span style=&quot;white-space-collapse: collapse;&quot;&gt;&lt;font style=&quot;font-size: 14px;&quot;&gt;&lt;b&gt;&lt;span style=&quot;white-space-collapse: preserve;&quot;&gt;&#x9;&lt;span style=&quot;white-space: pre;&quot;&gt;&#x9;&lt;/span&gt;&lt;/span&gt;busy &amp;lt;= &#39;0&#39;&lt;/b&gt;&lt;/font&gt;&lt;/span&gt;&lt;/div&gt;&lt;div style=&quot;&quot;&gt;&lt;span style=&quot;white-space-collapse: collapse;&quot;&gt;&lt;font style=&quot;font-size: 14px;&quot;&gt;&lt;b&gt;&lt;span style=&quot;white-space-collapse: preserve;&quot;&gt;&#x9;&lt;span style=&quot;white-space: pre;&quot;&gt;&#x9;&lt;/span&gt;&lt;/span&gt;en_er &amp;lt;= &#39;0&#39;&lt;/b&gt;&lt;/font&gt;&lt;/span&gt;&lt;/div&gt;&lt;div style=&quot;&quot;&gt;&lt;span style=&quot;white-space-collapse: collapse;&quot;&gt;&lt;font style=&quot;font-size: 14px;&quot;&gt;&lt;b&gt;&lt;span style=&quot;white-space-collapse: preserve;&quot;&gt;&#x9;&lt;span style=&quot;white-space: pre;&quot;&gt;&#x9;&lt;/span&gt;&lt;/span&gt;etat &amp;lt;= repos&lt;/b&gt;&lt;/font&gt;&lt;/span&gt;&lt;/div&gt;&lt;/div&gt;" style="text;html=1;align=left;verticalAlign=middle;resizable=0;points=[];autosize=1;strokeColor=none;fillColor=none;" vertex="1" parent="PRZvkhkHTBRHNg9CXJdy-9">
          <mxGeometry x="80" y="420" width="200" height="130" as="geometry" />
        </mxCell>
        <mxCell id="PRZvkhkHTBRHNg9CXJdy-21" value="&lt;font style=&quot;background-color: rgb(255, 255, 255); font-size: 14px;&quot;&gt;&lt;b&gt;&lt;font color=&quot;#ff0000&quot;&gt;busy_er = &#39;0&#39; &amp;amp; en_er = &#39;0&#39;&lt;/font&gt;&lt;/b&gt;&lt;/font&gt;&lt;div&gt;&lt;b style=&quot;background-color: initial; font-size: 14px;&quot;&gt;&lt;font color=&quot;#0000cc&quot;&gt;&lt;span style=&quot;white-space: pre;&quot;&gt;&#x9;&lt;/span&gt;noOctet =&amp;nbsp;1&lt;/font&gt;&lt;/b&gt;&lt;div&gt;&lt;b style=&quot;font-size: 14px;&quot;&gt;&lt;span style=&quot;white-space: pre;&quot;&gt;&#x9;&lt;/span&gt;&lt;span style=&quot;white-space: pre;&quot;&gt;&#x9;&lt;/span&gt;val_xor &amp;lt;= dout_er&lt;/b&gt;&lt;div&gt;&lt;div style=&quot;background-color: rgb(255, 255, 255); font-size: 14px;&quot;&gt;&lt;b&gt;&lt;span style=&quot;white-space-collapse: preserve;&quot;&gt;&#x9;&lt;/span&gt;&lt;span style=&quot;white-space-collapse: preserve;&quot;&gt;&#x9;&lt;/span&gt;cpt := 3&lt;br&gt;&amp;nbsp; &amp;nbsp; &amp;nbsp; &amp;nbsp; &amp;nbsp; &amp;nbsp; &amp;nbsp; &amp;nbsp; etat &amp;lt;= attente&lt;/b&gt;&lt;/div&gt;&lt;div style=&quot;background-color: rgb(255, 255, 255);&quot;&gt;&lt;span style=&quot;font-size: 14px; font-weight: bold; white-space: pre;&quot;&gt;&#x9;&lt;/span&gt;&lt;span style=&quot;font-size: 14px; font-weight: bold; white-space: pre;&quot;&gt;&#x9;&lt;/span&gt;&lt;span style=&quot;font-size: 14px;&quot;&gt;&lt;b&gt;noOctet := noOctet + 1&lt;/b&gt;&lt;/span&gt;&lt;br&gt;&lt;b style=&quot;font-size: 14px;&quot;&gt;&amp;nbsp; &amp;nbsp; &amp;nbsp; &amp;nbsp;&amp;nbsp;&lt;/b&gt;&lt;font style=&quot;font-size: 14px; font-weight: bold;&quot; color=&quot;#0000cc&quot;&gt;noOctet = 2&lt;/font&gt;&lt;br&gt;&lt;span style=&quot;font-size: 14px; font-weight: bold; white-space-collapse: preserve;&quot;&gt;&#x9;&lt;/span&gt;&lt;span style=&quot;font-size: 14px; font-weight: bold; white-space-collapse: preserve;&quot;&gt;&#x9;&lt;/span&gt;&lt;b style=&quot;font-size: 14px;&quot;&gt;val_and &amp;lt;= dout_er&lt;/b&gt;&lt;/div&gt;&lt;div style=&quot;background-color: rgb(255, 255, 255); font-size: 14px;&quot;&gt;&lt;b&gt;&lt;span style=&quot;white-space-collapse: preserve;&quot;&gt;&#x9;&lt;/span&gt;&lt;span style=&quot;white-space-collapse: preserve;&quot;&gt;&#x9;&lt;/span&gt;cpt := 3&lt;br&gt;&amp;nbsp; &amp;nbsp; &amp;nbsp; &amp;nbsp; &amp;nbsp; &amp;nbsp; &amp;nbsp; &amp;nbsp; etat &amp;lt;= attente&lt;/b&gt;&lt;/div&gt;&lt;/div&gt;&lt;/div&gt;&lt;/div&gt;&lt;div style=&quot;background-color: rgb(255, 255, 255);&quot;&gt;&lt;b style=&quot;font-size: 14px;&quot;&gt;&lt;span style=&quot;white-space: pre;&quot;&gt;&#x9;&lt;/span&gt;&lt;span style=&quot;white-space: pre;&quot;&gt;&#x9;&lt;/span&gt;&lt;/b&gt;&lt;span style=&quot;background-color: initial; font-size: 14px;&quot;&gt;&lt;b&gt;noOctet := noOctet + 1&lt;/b&gt;&lt;/span&gt;&lt;/div&gt;" style="text;html=1;align=left;verticalAlign=middle;resizable=0;points=[];autosize=1;strokeColor=none;fillColor=none;" vertex="1" parent="PRZvkhkHTBRHNg9CXJdy-9">
          <mxGeometry x="90" y="620" width="240" height="200" as="geometry" />
        </mxCell>
        <mxCell id="PRZvkhkHTBRHNg9CXJdy-22" value="&lt;span style=&quot;color: rgb(0, 0, 0); font-family: Helvetica; font-size: 14px; font-style: normal; font-variant-ligatures: normal; font-variant-caps: normal; font-weight: 700; letter-spacing: normal; orphans: 2; text-align: left; text-indent: 0px; text-transform: none; widows: 2; word-spacing: 0px; -webkit-text-stroke-width: 0px; white-space: normal; background-color: rgb(255, 255, 255); text-decoration-thickness: initial; text-decoration-style: initial; text-decoration-color: initial; display: inline !important; float: none;&quot;&gt;en_er &amp;lt;= &#39;0&#39;&lt;/span&gt;" style="text;whiteSpace=wrap;html=1;" vertex="1" parent="PRZvkhkHTBRHNg9CXJdy-9">
          <mxGeometry x="520" y="870" width="110" height="40" as="geometry" />
        </mxCell>
      </root>
    </mxGraphModel>
  </diagram>
</mxfile>
